Coordinates
version=1
nRows=14
nColumns=33
inDegrees=yes

Units are S.I. units (second, meters, Newtons, ...)
Angles are in degrees.

endheader
time	ground_thorax_rot_x	ground_thorax_rot_y	ground_thorax_rot_z	ground_thorax_tx	ground_thorax_ty	ground_thorax_tz	clav_prot_r	clav_elev_r	scapula_abduction_r	scapula_elevation_r	scapula_upward_rot_r	scapula_winging_r	shoulder_elv_r	plane_of_elev_r	axial_rot_r	elbow_flexion_r	pro_sup_r	wrist_flex_r	wrist_dev_r	clav_prot_l	clav_elev_l	scapula_abduction_l	scapula_elevation_l	scapula_upward_rot_l	scapula_winging_l	shoulder_elv_l	plane_of_elev_l	axial_rot_l	elbow_flexion_l	pro_sup_l	wrist_flex_l	wrist_dev_l	
6.1100	37.888015	10.207757	11.278487	-229.280722	845.107353	5.809489	15.092458	37.768638	37.820957	45.000000	-45.000000	2790.733755	-4067.773154	149.059452	-112.330054	1105.199256	161.413983	12.237487	4.594885	10.849879	-45.000000	-38.151315	45.000000	-45.000000	-1698.580165	626.972858	138.125223	-180.000000	1086.951347	34.741380	7.691569	-25.000756	
6.1200	37.846582	10.357215	11.561077	-229.129160	843.937972	5.623103	14.958773	37.702009	37.657226	45.000000	-45.000000	2790.850902	-4067.838164	149.114700	-112.175322	1105.236071	161.316568	12.325077	4.692999	10.836147	-45.000000	-38.111897	45.000000	-45.000000	-1698.602508	626.952140	138.122936	-180.000000	1086.913559	34.880136	7.641396	-24.893616	
6.1300	37.810801	10.484189	11.833536	-228.934567	842.779661	5.440382	14.770265	37.622942	37.489976	45.000000	-45.000000	2790.983150	-4067.858265	149.151066	-112.028318	1105.304050	161.229239	12.425348	4.796134	10.802659	-45.000000	-38.093888	45.000000	-45.000000	-1698.602740	626.911264	138.116223	-180.000000	1086.901525	35.039878	7.614759	-24.818033	
6.1400	37.791173	10.586052	12.083737	-228.632434	841.632668	5.264927	14.690100	37.585279	37.385924	45.000000	-45.000000	2791.081490	-4067.909275	149.175009	-111.963902	1105.335237	161.173875	12.490802	4.874493	10.797109	-45.000000	-38.070906	45.000000	-45.000000	-1698.629469	626.860458	138.119156	-180.000000	1086.910236	35.227720	7.523826	-24.760167	
6.1500	37.782765	10.668354	12.318100	-228.237116	840.515263	5.098935	14.654449	37.567486	37.317786	45.000000	-45.000000	2791.159082	-4067.962590	149.184524	-111.965285	1105.356718	161.144393	12.539290	4.940663	10.802274	-45.000000	-38.051451	45.000000	-45.000000	-1698.667179	626.806443	138.127145	-180.000000	1086.939884	35.449562	7.400382	-24.728600	
6.1600	37.779544	10.735379	12.537145	-227.757314	839.446727	4.945712	14.652256	37.565806	37.282683	45.000000	-45.000000	2791.223496	-4068.013583	149.182671	-112.031727	1105.367436	161.136126	12.574794	4.995992	10.813831	-45.000000	-38.039673	45.000000	-45.000000	-1698.712547	626.752212	138.135366	-180.000000	1086.990773	35.707797	7.250306	-24.711627	
6.1700	37.776870	10.793157	12.744325	-227.223622	838.451225	4.808946	14.664644	37.572591	37.267683	45.000000	-45.000000	2791.273028	-4068.061279	149.172164	-112.154164	1105.372054	161.138354	12.601913	5.045785	10.829354	-45.000000	-38.033305	45.000000	-45.000000	-1698.764830	626.710025	138.144890	-180.000000	1087.053322	35.998348	7.085313	-24.709979	
6.1800	37.769271	10.843595	12.938779	-226.673330	837.552577	4.692813	14.668234	37.579537	37.262697	45.000000	-45.000000	2791.318749	-4068.094011	149.155602	-112.316151	1105.373478	161.138031	12.627171	5.092990	10.841369	-45.000000	-38.036682	45.000000	-45.000000	-1698.814091	626.677801	138.148225	-180.000000	1087.126652	36.314125	6.921476	-24.711237	
6.1900	37.758243	10.885880	13.119119	-226.136898	836.770724	4.601924	14.673219	37.588810	37.268394	45.000000	-45.000000	2791.352235	-4068.119546	149.134793	-112.513519	1105.366781	161.126660	12.645001	5.135710	10.855471	-45.000000	-38.043987	45.000000	-45.000000	-1698.864936	626.659789	138.150435	-180.000000	1087.205430	36.643656	6.757723	-24.716421	
6.2000	37.741465	10.910714	13.277094	-225.634563	836.119818	4.540546	14.675105	37.599433	37.285564	45.000000	-45.000000	2791.378564	-4068.130086	149.106078	-112.737493	1105.358072	161.099607	12.653530	5.171499	10.869444	-45.000000	-38.060788	45.000000	-45.000000	-1698.908373	626.648519	138.145062	-180.000000	1087.294552	36.977035	6.601153	-24.722635	
6.2100	37.725638	10.917917	13.416942	-225.175052	835.608084	4.511836	14.676848	37.611548	37.313045	45.000000	-45.000000	2791.390379	-4068.129926	149.068474	-112.988764	1105.349877	161.058216	12.648912	5.199728	10.885562	-45.000000	-38.081868	45.000000	-45.000000	-1698.948565	626.648080	138.140084	-180.000000	1087.389444	37.305562	6.453740	-24.740463	
6.2200	37.711849	10.903781	13.532653	-224.755518	835.236462	4.517042	14.678232	37.624265	37.348711	45.000000	-45.000000	2791.394293	-4068.113839	149.019397	-113.263709	1105.349242	161.007038	12.629798	5.218122	10.903790	-45.000000	-38.113560	45.000000	-44.999999	-1698.978144	626.655981	138.126132	-180.000000	1087.497073	37.621143	6.317957	-24.758617	
6.2300	37.701261	10.886271	13.646679	-224.364205	834.998736	4.555025	14.680013	37.636353	37.391175	45.000000	-45.000000	2791.387817	-4068.093383	148.966865	-113.569622	1105.347774	160.954207	12.598169	5.230011	10.925297	-45.000000	-38.146831	45.000000	-44.999999	-1699.009929	626.678136	138.117976	-180.000000	1087.602964	37.916642	6.195283	-24.775399	
6.2400	37.692825	10.858170	13.741511	-223.983521	834.881595	4.622366	14.678630	37.646577	37.433863	45.000000	-45.000000	2791.385933	-4068.058146	148.905716	-113.901494	1105.351409	160.906141	12.556632	5.232817	10.948898	-45.000000	-38.192171	45.000000	-44.999998	-1699.038918	626.712974	138.098305	-180.000000	1087.716689	38.183552	6.087227	-24.777551	
